# xmcd CD database file
#
# Track frame offsets:
#	150
#	15180
#	27553
#	43142
#	57932
#	76139
#	101695
#	113589
#	139136
#	153082
#	183721
#	200476
#	212369
#	227733
#	242145
#	255596
#	271640
#	284727
#	296071
#	309199
#
# Disc length: 4329 seconds
#
# Revision: 0
# Processed by: cddbd v1.5.2PL0 Copyright (c) Steve Scherf et al.
# Submitted via: CDex 2.12
#
DISCID=1310e714
DTITLE=Billie Holiday - Gold - Disc 2
DYEAR=1949
DGENRE=Jazz
TTITLE0=Fine And Mellow
TTITLE1=The Very Thought Of You
TTITLE2=I Can't Give You Anything But Love
TTITLE3=Pennies From Heaven
TTITLE4=It Had To Be You
TTITLE5=All Or Nothing At All
TTITLE6=My Man
TTITLE7=One For My Baby (And One More For The Road)
TTITLE8=Carelessly
TTITLE9=Embraceable You
TTITLE10=Stormy Weather
TTITLE11=Love Me Or Leave Me
TTITLE12=Let's Call The Whole Thing Off
TTITLE13=What a Little Moonlight can Do
TTITLE14=I Loves You Porgy
TTITLE15=A Fine Romance
TTITLE16=There'll Be Some Changes Made
TTITLE17=All of You
TTITLE18=I've Got My Love To Keep Me Warm
TTITLE19=I'm A Fool To Want You
EXTD=YEAR: 1949
EXTT0=
EXTT1=
EXTT2=
EXTT3=
EXTT4=
EXTT5=
EXTT6=
EXTT7=
EXTT8=
EXTT9=
EXTT10=
EXTT11=
EXTT12=
EXTT13=
EXTT14=
EXTT15=
EXTT16=
EXTT17=
EXTT18=
EXTT19=
PLAYORDER=
